# xmcd
#
# Track frame offsets: 
#        150
#        15696
#        31731
#        52407
#        65493
#
# Disc length: 1155 seconds
#
# Revision: 1
# Processed by: cddbd v1.5.2PL0 Copyright (c) Steve Scherf et al.
# Submitted via: ExactAudioCopyFreeDBPlugin 1.0
#
DISCID=3f048105
DTITLE=Who's Pinski - Elephant
DYEAR=2013
DGENRE=Indie Rock
TTITLE0=Have You Ever
TTITLE1=Telling You
TTITLE2=Elephant
TTITLE3=Get Out
TTITLE4=My Name
EXTD=
EXTT0=
EXTT1=
EXTT2=
EXTT3=
EXTT4=
PLAYORDER=
